<svg xmlns="http://www.w3.org/2000/svg" xmlns:xlink="http://www.w3.org/1999/xlink" width="1080" zoomAndPan="magnify" viewBox="0 0 810 809.999993" height="1080" preserveAspectRatio="xMidYMid meet" version="1.0"><defs><clipPath id="9f1e713e1e"><path d="M 149.007812 222.144531 L 660.980469 222.144531 L 660.980469 440.585938 L 149.007812 440.585938 Z M 149.007812 222.144531 " clip-rule="nonzero"/></clipPath><clipPath id="8d5b74282b"><path d="M 170.328125 517.230469 L 179 517.230469 L 179 607.644531 L 170.328125 607.644531 Z M 170.328125 517.230469 " clip-rule="nonzero"/></clipPath></defs><rect x="-81" width="972" fill="#ffffff" y="-80.999999" height="971.999992" fill-opacity="1"/><rect x="-81" width="972" fill="#ffffff" y="-80.999999" height="971.999992" fill-opacity="1"/><path fill="#040609" d="M 353.5625 228.085938 L 650.832031 242.753906 C 652.972656 242.859375 654.265625 244.300781 654.765625 245.613281 C 655.265625 246.929688 655.246094 248.867188 653.714844 250.367188 L 557.402344 344.425781 L 546.867188 313.269531 C 544.074219 305.007812 535.734375 299.765625 527.054688 300.820312 C 503.757812 303.632812 456.332031 311.175781 400.472656 330.0625 C 344.515625 348.984375 302.160156 371.816406 281.894531 383.746094 C 274.40625 388.15625 270.992188 397.351562 273.785156 405.617188 L 283.558594 434.511719 L 159.15625 428.371094 C 157.019531 428.265625 155.71875 426.824219 155.226562 425.511719 C 154.726562 424.195312 154.738281 422.257812 156.269531 420.757812 L 353.5625 228.085938 " fill-opacity="1" fill-rule="nonzero"/><path fill="#1c2143" d="M 283.527344 386.523438 C 303.6875 374.65625 345.820312 351.941406 401.5 333.113281 C 457.09375 314.320312 504.269531 306.816406 527.441406 304.015625 C 534.574219 303.160156 541.503906 307.472656 543.8125 314.300781 L 579.054688 418.515625 C 567.613281 419.535156 510.332031 425.5625 440.722656 449.101562 C 371.101562 472.644531 321.796875 502.660156 312.078125 508.796875 L 276.839844 404.585938 C 274.535156 397.761719 277.34375 390.160156 283.527344 386.523438 " fill-opacity="1" fill-rule="nonzero"/><path fill="#040609" d="M 283.527344 386.523438 C 303.6875 374.65625 345.820312 351.941406 401.5 333.113281 C 457.09375 314.320312 504.269531 306.816406 527.441406 304.015625 C 534.574219 303.160156 541.503906 307.472656 543.8125 314.300781 L 547.246094 324.449219 C 521.546875 328.355469 482.011719 336.167969 436.941406 351.40625 C 381.261719 370.234375 339.128906 392.949219 318.96875 404.8125 C 312.785156 408.453125 309.972656 416.050781 312.28125 422.878906 L 336.535156 494.601562 C 324.015625 501.417969 315.519531 506.621094 312.078125 508.796875 L 276.839844 404.585938 C 274.535156 397.761719 277.34375 390.160156 283.527344 386.523438 " fill-opacity="1" fill-rule="nonzero"/><path fill="#1f2840" d="M 174.671875 508.726562 C 181.117188 508.726562 186.460938 513.566406 187.25 519.804688 L 162.082031 519.804688 C 162.875 513.566406 168.21875 508.726562 174.671875 508.726562 " fill-opacity="1" fill-rule="nonzero"/><path fill="#4cc9f0" d="M 575.425781 416.167969 C 558.46875 417.890625 504.410156 424.730469 439.859375 446.558594 C 375.296875 468.390625 328.078125 495.804688 313.535156 504.726562 L 279.382812 403.726562 C 277.480469 398.097656 279.796875 391.832031 284.886719 388.835938 C 304.960938 377.023438 346.910156 354.410156 402.363281 335.660156 C 457.722656 316.9375 504.691406 309.46875 527.761719 306.683594 C 533.652344 305.960938 539.367188 309.53125 541.273438 315.164062 Z M 311.210938 515.558594 C 312.042969 515.558594 312.863281 515.316406 313.578125 514.847656 C 314.089844 514.511719 365.863281 480.652344 442.613281 454.699219 C 519.359375 428.746094 580.921875 424.28125 581.535156 424.238281 C 582.867188 424.148438 584.078125 423.445312 584.816406 422.335938 C 585.554688 421.226562 585.738281 419.839844 585.3125 418.574219 L 549.410156 312.414062 C 546.214844 302.949219 536.644531 296.949219 526.730469 298.152344 C 503.332031 300.980469 455.703125 308.554688 399.609375 327.519531 C 343.425781 346.519531 300.890625 369.453125 280.535156 381.433594 C 271.949219 386.484375 268.046875 397.015625 271.246094 406.480469 L 307.140625 512.640625 C 307.570312 513.902344 308.554688 514.894531 309.8125 515.324219 C 310.269531 515.480469 310.738281 515.558594 311.210938 515.558594 " fill-opacity="1" fill-rule="nonzero"/><path fill="#4cc9f0" d="M 306.273438 400.222656 C 306.960938 400.222656 307.664062 400.058594 308.3125 399.707031 C 326.761719 389.730469 356.480469 374.992188 393.253906 361.46875 C 395.484375 360.648438 396.625 358.179688 395.804688 355.953125 C 394.988281 353.726562 392.5 352.585938 390.292969 353.40625 C 353.035156 367.109375 322.925781 382.035156 304.226562 392.148438 C 302.136719 393.277344 301.359375 395.882812 302.488281 397.96875 C 303.269531 399.40625 304.746094 400.222656 306.273438 400.222656 " fill-opacity="1" fill-rule="nonzero"/><g clip-path="url(#9f1e713e1e)"><path fill="#4cc9f0" d="M 285.679688 440.523438 C 287.953125 440.523438 289.851562 438.738281 289.964844 436.441406 C 290.082031 434.070312 288.253906 432.054688 285.882812 431.9375 L 159.289062 425.6875 C 158.296875 425.640625 157.886719 424.957031 157.734375 424.558594 C 157.585938 424.15625 157.433594 423.378906 158.152344 422.683594 L 354.605469 230.824219 L 650.699219 245.4375 C 651.699219 245.484375 652.101562 246.164062 652.257812 246.566406 C 652.40625 246.96875 652.554688 247.746094 651.839844 248.445312 L 553.742188 344.25 C 552.042969 345.90625 552.007812 348.628906 553.664062 350.324219 C 555.324219 352.023438 558.042969 352.054688 559.742188 350.394531 L 657.839844 254.59375 C 660.832031 251.671875 661.773438 247.429688 660.289062 243.523438 C 658.808594 239.617188 655.292969 237.0625 651.121094 236.851562 L 353.152344 222.152344 C 352.0625 222.101562 350.792969 222.535156 349.941406 223.371094 L 152.148438 416.535156 C 149.15625 419.453125 148.21875 423.695312 149.703125 427.605469 C 151.183594 431.511719 154.695312 434.066406 158.871094 434.273438 L 285.464844 440.519531 C 285.539062 440.523438 285.605469 440.523438 285.679688 440.523438 " fill-opacity="1" fill-rule="nonzero"/></g><path fill="#4cc9f0" d="M 183.699219 517.117188 L 165.636719 517.117188 C 167.242188 513.746094 170.6875 511.414062 174.671875 511.414062 C 178.648438 511.414062 182.089844 513.746094 183.699219 517.117188 Z M 160.371094 525.710938 L 188.964844 525.710938 C 191.339844 525.710938 193.257812 523.789062 193.257812 521.414062 C 193.257812 511.160156 184.921875 502.820312 174.671875 502.820312 C 164.417969 502.820312 156.074219 511.160156 156.074219 521.414062 C 156.074219 523.789062 157.992188 525.710938 160.371094 525.710938 " fill-opacity="1" fill-rule="nonzero"/><path fill="#4cc9f0" d="M 174.667969 511.414062 C 177.042969 511.414062 178.964844 509.488281 178.964844 507.117188 L 178.964844 420.113281 C 178.964844 417.738281 177.042969 415.816406 174.667969 415.816406 C 172.292969 415.816406 170.371094 417.738281 170.371094 420.113281 L 170.371094 507.117188 C 170.371094 509.488281 172.292969 511.414062 174.667969 511.414062 " fill-opacity="1" fill-rule="nonzero"/><g clip-path="url(#8d5b74282b)"><path fill="#4cc9f0" d="M 174.667969 607.894531 C 177.042969 607.894531 178.964844 605.96875 178.964844 603.597656 L 178.964844 521.535156 C 178.964844 519.160156 177.042969 517.238281 174.667969 517.238281 C 172.292969 517.238281 170.371094 519.160156 170.371094 521.535156 L 170.371094 603.597656 C 170.371094 605.96875 172.292969 607.894531 174.667969 607.894531 " fill-opacity="1" fill-rule="nonzero"/></g><path fill="#4cc9f0" d="M 195.777344 590.566406 C 195.929688 590.566406 196.082031 590.558594 196.230469 590.546875 C 198.589844 590.296875 200.304688 588.183594 200.054688 585.824219 L 193.238281 520.964844 C 192.988281 518.605469 190.875 516.929688 188.515625 517.140625 C 186.160156 517.390625 184.445312 519.503906 184.695312 521.863281 L 191.511719 586.722656 C 191.746094 588.925781 193.605469 590.566406 195.777344 590.566406 " fill-opacity="1" fill-rule="nonzero"/><path fill="#4cc9f0" d="M 153.5625 590.566406 C 155.734375 590.566406 157.59375 588.925781 157.828125 586.722656 L 164.644531 521.863281 C 164.898438 519.503906 163.179688 517.390625 160.824219 517.140625 C 158.539062 516.925781 156.351562 518.605469 156.101562 520.964844 L 149.285156 585.824219 C 149.03125 588.183594 150.746094 590.296875 153.105469 590.546875 C 153.261719 590.558594 153.410156 590.566406 153.5625 590.566406 " fill-opacity="1" fill-rule="nonzero"/></svg>